<svg width="24" height="24" viewBox="0 0 24 24" fill="none" xmlns="http://www.w3.org/2000/svg">
<path d="M17.7384 1.7376C18.0336 1.43197 18.3867 1.18819 18.7771 1.02048C19.1675 0.85277 19.5874 0.764494 20.0123 0.760802C20.4372 0.75711 20.8586 0.838075 21.2518 0.998974C21.6451 1.15987 22.0024 1.39748 22.3028 1.69794C22.6033 1.9984 22.8409 2.35568 23.0018 2.74895C23.1627 3.14222 23.2437 3.56359 23.24 3.98849C23.2363 4.41338 23.148 4.83329 22.9803 5.2237C22.8126 5.61411 22.5688 5.96721 22.2632 6.2624L20.9944 7.5312L16.4696 3.0064L17.7384 1.7376V1.7376ZM14.2072 5.2688L0.800781 18.6752V23.2H5.32558L18.7336 9.7936L14.2056 5.2688H14.2072Z" fill="#1C64F2"/>
</svg>
